ffmpeg version n4.4.1 Copyright (c) 2000-2021 the FFmpeg developers
  built with gcc 11.1.0 (GCC)
  configuration: --prefix=/usr --disable-debug --disable-static --disable-stripping --enable-amf --enable-avisynth --enable-cuda-llvm --enable-lto --enable-fontconfig --enable-gmp --enable-gnutls --enable-gpl --enable-ladspa --enable-libaom --enable-libass --enable-libbluray --enable-libdav1d --enable-libdrm --enable-libfreetype --enable-libfribidi --enable-libgsm --enable-libiec61883 --enable-libjack --enable-libmfx --enable-libmodplug --enable-libmp3lame --enable-libopencore_amrnb --enable-libopencore_amrwb --enable-libopenjpeg --enable-libopus --enable-libpulse --enable-librav1e --enable-librsvg --enable-libsoxr --enable-libspeex --enable-libsrt --enable-libssh --enable-libsvtav1 --enable-libtheora --enable-libv4l2 --enable-libvidstab --enable-libvmaf --enable-libvorbis --enable-libvpx --enable-libwebp --enable-libx264 --enable-libx265 --enable-libxcb --enable-libxml2 --enable-libxvid --enable-libzimg --enable-nvdec --enable-nvenc --enable-shared --enable-version3
  libavutil      56. 70.100 / 56. 70.100
  libavcodec     58.134.100 / 58.134.100
  libavformat    58. 76.100 / 58. 76.100
  libavdevice    58. 13.100 / 58. 13.100
  libavfilter     7.110.100 /  7.110.100
  libswscale      5.  9.100 /  5.  9.100
  libswresample   3.  9.100 /  3.  9.100
  libpostproc    55.  9.100 / 55.  9.100
Splitting the commandline.
Reading option '-v' ... matched as option 'v' (set logging level) with argument 'debug'.
Reading option '-nostdin' ... matched as option 'stdin' (enable or disable interaction on standard input) with argument 0.
Reading option '-progress' ... matched as option 'progress' (write program-readable progress information) with argument '/tmp/KritaFFmpegProgress.dnLkRR'.
Reading option '-r' ... matched as option 'r' (set frame rate (Hz value, fraction or abbreviation)) with argument '12'.
Reading option '-start_number' ... matched as AVOption 'start_number' with argument '0'.
Reading option '-i' ... matched as input url with argument '/home/dadard/REPOS/Prog/godot/GoGodotJam_2/images/energy/animations/energy_medium/gif/player_idle%04d.png'.
Reading option '-vf' ... matched as option 'vf' (set video filters) with argument 'palettegen'.
Reading option '-y' ... matched as option 'y' (overwrite output files) with argument '1'.
Reading option '/home/dadard/REPOS/Prog/godot/GoGodotJam_2/images/energy/animations/energy_medium/gif/palette.png' ... matched as output url.
Finished splitting the commandline.
Parsing a group of options: global .
Applying option v (set logging level) with argument debug.
Applying option nostdin (enable or disable interaction on standard input) with argument 0.
Applying option progress (write program-readable progress information) with argument /tmp/KritaFFmpegProgress.dnLkRR.
[file @ 0x55a9162c5400] Setting default whitelist 'file,crypto,data'
Applying option y (overwrite output files) with argument 1.
Successfully parsed a group of options.
Parsing a group of options: input url /home/dadard/REPOS/Prog/godot/GoGodotJam_2/images/energy/animations/energy_medium/gif/player_idle%04d.png.
Applying option r (set frame rate (Hz value, fraction or abbreviation)) with argument 12.
Successfully parsed a group of options.
Opening an input file: /home/dadard/REPOS/Prog/godot/GoGodotJam_2/images/energy/animations/energy_medium/gif/player_idle%04d.png.
[image2 @ 0x55a9162c58c0] Opening '/home/dadard/REPOS/Prog/godot/GoGodotJam_2/images/energy/animations/energy_medium/gif/player_idle0000.png' for reading
[file @ 0x55a9162cbc40] Setting default whitelist 'file,crypto,data'
[AVIOContext @ 0x55a9162ca880] Statistics: 3986 bytes read, 0 seeks
[image2 @ 0x55a9162c58c0] Opening '/home/dadard/REPOS/Prog/godot/GoGodotJam_2/images/energy/animations/energy_medium/gif/player_idle0001.png' for reading
[file @ 0x55a9162cbe80] Setting default whitelist 'file,crypto,data'
[AVIOContext @ 0x55a9162cc040] Statistics: 3963 bytes read, 0 seeks
[image2 @ 0x55a9162c58c0] Opening '/home/dadard/REPOS/Prog/godot/GoGodotJam_2/images/energy/animations/energy_medium/gif/player_idle0002.png' for reading
[file @ 0x55a9162cd5c0] Setting default whitelist 'file,crypto,data'
[AVIOContext @ 0x55a9162cd800] Statistics: 4094 bytes read, 0 seeks
[image2 @ 0x55a9162c58c0] Opening '/home/dadard/REPOS/Prog/godot/GoGodotJam_2/images/energy/animations/energy_medium/gif/player_idle0003.png' for reading
[file @ 0x55a9162d2700] Setting default whitelist 'file,crypto,data'
[AVIOContext @ 0x55a9162d2800] Statistics: 4368 bytes read, 0 seeks
[image2 @ 0x55a9162c58c0] Opening '/home/dadard/REPOS/Prog/godot/GoGodotJam_2/images/energy/animations/energy_medium/gif/player_idle0004.png' for reading
[file @ 0x55a9162d3d00] Setting default whitelist 'file,crypto,data'
[AVIOContext @ 0x55a9162e0280] Statistics: 4423 bytes read, 0 seeks
[image2 @ 0x55a9162c58c0] Opening '/home/dadard/REPOS/Prog/godot/GoGodotJam_2/images/energy/animations/energy_medium/gif/player_idle0005.png' for reading
[file @ 0x55a9162d8680] Setting default whitelist 'file,crypto,data'
[AVIOContext @ 0x55a9162d3d00] Statistics: 4526 bytes read, 0 seeks
[image2 @ 0x55a9162c58c0] Opening '/home/dadard/REPOS/Prog/godot/GoGodotJam_2/images/energy/animations/energy_medium/gif/player_idle0006.png' for reading
[file @ 0x55a9162cbf40] Setting default whitelist 'file,crypto,data'
[AVIOContext @ 0x55a9162d3d00] Statistics: 4639 bytes read, 0 seeks
[image2 @ 0x55a9162c58c0] Opening '/home/dadard/REPOS/Prog/godot/GoGodotJam_2/images/energy/animations/energy_medium/gif/player_idle0007.png' for reading
[file @ 0x55a9162db740] Setting default whitelist 'file,crypto,data'
[AVIOContext @ 0x55a9162db840] Statistics: 4961 bytes read, 0 seeks
[image2 @ 0x55a9162c58c0] Opening '/home/dadard/REPOS/Prog/godot/GoGodotJam_2/images/energy/animations/energy_medium/gif/player_idle0008.png' for reading
[file @ 0x55a9162dcfc0] Setting default whitelist 'file,crypto,data'
[AVIOContext @ 0x55a9162db700] Statistics: 4956 bytes read, 0 seeks
[image2 @ 0x55a9162c58c0] Opening '/home/dadard/REPOS/Prog/godot/GoGodotJam_2/images/energy/animations/energy_medium/gif/player_idle0009.png' for reading
[file @ 0x55a9162de700] Setting default whitelist 'file,crypto,data'
[AVIOContext @ 0x55a9162db700] Statistics: 4799 bytes read, 0 seeks
[image2 @ 0x55a9162c58c0] Opening '/home/dadard/REPOS/Prog/godot/GoGodotJam_2/images/energy/animations/energy_medium/gif/player_idle0010.png' for reading
[file @ 0x55a9162dfd80] Setting default whitelist 'file,crypto,data'
[AVIOContext @ 0x55a9162dfe80] Statistics: 4704 bytes read, 0 seeks
[image2 @ 0x55a9162c58c0] Opening '/home/dadard/REPOS/Prog/godot/GoGodotJam_2/images/energy/animations/energy_medium/gif/player_idle0011.png' for reading
[file @ 0x55a9162dfd80] Setting default whitelist 'file,crypto,data'
[AVIOContext @ 0x55a9162e00c0] Statistics: 4573 bytes read, 0 seeks
[image2 @ 0x55a9162c58c0] Opening '/home/dadard/REPOS/Prog/godot/GoGodotJam_2/images/energy/animations/energy_medium/gif/player_idle0012.png' for reading
[file @ 0x55a9162dfd80] Setting default whitelist 'file,crypto,data'
[AVIOContext @ 0x55a9162dfe80] Statistics: 4494 bytes read, 0 seeks
[image2 @ 0x55a9162c58c0] Opening '/home/dadard/REPOS/Prog/godot/GoGodotJam_2/images/energy/animations/energy_medium/gif/player_idle0013.png' for reading
[file @ 0x55a9162dfd80] Setting default whitelist 'file,crypto,data'
[AVIOContext @ 0x55a9162dfe80] Statistics: 4163 bytes read, 0 seeks
[image2 @ 0x55a9162c58c0] Opening '/home/dadard/REPOS/Prog/godot/GoGodotJam_2/images/energy/animations/energy_medium/gif/player_idle0014.png' for reading
[file @ 0x55a9162dfd80] Setting default whitelist 'file,crypto,data'
[AVIOContext @ 0x55a9162e4c00] Statistics: 4028 bytes read, 0 seeks
[image2 @ 0x55a9162c58c0] Opening '/home/dadard/REPOS/Prog/godot/GoGodotJam_2/images/energy/animations/energy_medium/gif/player_idle0015.png' for reading
[file @ 0x55a9162dfe80] Setting default whitelist 'file,crypto,data'
[AVIOContext @ 0x55a9162e5e80] Statistics: 4018 bytes read, 0 seeks
Input #0, image2, from '/home/dadard/REPOS/Prog/godot/GoGodotJam_2/images/energy/animations/energy_medium/gif/player_idle%04d.png':
  Duration: 00:00:00.64, start: 0.000000, bitrate: N/A
  Stream #0:0, 16, 1/25: Video: png, 1 reference frame, rgba(pc), 50x50 [SAR 3937:3937 DAR 1:1], 0/1, 25 fps, 25 tbr, 25 tbn, 25 tbc
Successfully opened the file.
Parsing a group of options: output url /home/dadard/REPOS/Prog/godot/GoGodotJam_2/images/energy/animations/energy_medium/gif/palette.png.
Applying option vf (set video filters) with argument palettegen.
Successfully parsed a group of options.
Opening an output file: /home/dadard/REPOS/Prog/godot/GoGodotJam_2/images/energy/animations/energy_medium/gif/palette.png.
Successfully opened the file.
detected 4 logical cores
Stream mapping:
  Stream #0:0 -> #0:0 (png (native) -> png (native))
cur_dts is invalid st:0 (0) [init:0 i_done:0 finish:0] (this is harmless if it occurs once at the start per stream)
    Last message repeated 4 times
[graph 0 input from stream 0:0 @ 0x55a9162f09c0] Setting 'video_size' to value '50x50'
[graph 0 input from stream 0:0 @ 0x55a9162f09c0] Setting 'pix_fmt' to value '26'
[graph 0 input from stream 0:0 @ 0x55a9162f09c0] Setting 'time_base' to value '1/12'
[graph 0 input from stream 0:0 @ 0x55a9162f09c0] Setting 'pixel_aspect' to value '3937/3937'
[graph 0 input from stream 0:0 @ 0x55a9162f09c0] Setting 'frame_rate' to value '12/1'
[graph 0 input from stream 0:0 @ 0x55a9162f09c0] w:50 h:50 pixfmt:rgba tb:1/12 fr:12/1 sar:3937/3937
[format @ 0x55a9162f2380] Setting 'pix_fmts' to value 'rgb24|rgba|rgb48be|rgba64be|pal8|gray|ya8|gray16be|ya16be|monob'
[auto_scaler_0 @ 0x55a9162f3b80] Setting 'flags' to value 'bicubic'
[auto_scaler_0 @ 0x55a9162f3b80] w:iw h:ih flags:'bicubic' interl:0
[Parsed_palettegen_0 @ 0x55a9162f1bc0] auto-inserting filter 'auto_scaler_0' between the filter 'graph 0 input from stream 0:0' and the filter 'Parsed_palettegen_0'
[auto_scaler_1 @ 0x55a9162f5380] Setting 'flags' to value 'bicubic'
[auto_scaler_1 @ 0x55a9162f5380] w:iw h:ih flags:'bicubic' interl:0
[format @ 0x55a9162f2380] auto-inserting filter 'auto_scaler_1' between the filter 'Parsed_palettegen_0' and the filter 'format'
[AVFilterGraph @ 0x55a9162f0e00] query_formats: 4 queried, 1 merged, 2 already done, 0 delayed
[auto_scaler_1 @ 0x55a9162f5380] picking rgba out of 10 ref:bgra alpha:1
[swscaler @ 0x55a9162f6780] Forcing full internal H chroma due to input having non subsampled chroma
[auto_scaler_0 @ 0x55a9162f3b80] w:50 h:50 fmt:rgba sar:3937/3937 -> w:50 h:50 fmt:bgra sar:1/1 flags:0x4
[swscaler @ 0x55a91630bcc0] Forcing full internal H chroma due to input having non subsampled chroma
[auto_scaler_1 @ 0x55a9162f5380] w:16 h:16 fmt:bgra sar:1/1 -> w:16 h:16 fmt:rgba sar:1/1 flags:0x4
cur_dts is invalid st:0 (0) [init:0 i_done:0 finish:0] (this is harmless if it occurs once at the start per stream)
    Last message repeated 15 times
[Parsed_palettegen_0 @ 0x55a9162f1bc0] 255(+1) colors generated out of 2660 colors; ratio=0.095865
[Parsed_palettegen_0 @ 0x55a9162f1bc0] Dupped color: FF1F4B5E
[Parsed_palettegen_0 @ 0x55a9162f1bc0] Dupped color: FF285264
[Parsed_palettegen_0 @ 0x55a9162f1bc0] Dupped color: FF345C6D
[Parsed_palettegen_0 @ 0x55a9162f1bc0] Dupped color: FFD8F2FF
[Parsed_palettegen_0 @ 0x55a9162f1bc0] Dupped color: FFE4F6FF
[Parsed_palettegen_0 @ 0x55a9162f1bc0] Dupped color: FFFFFFFF
    Last message repeated 1 times
cur_dts is invalid st:0 (0) [init:0 i_done:0 finish:0] (this is harmless if it occurs once at the start per stream)
Output #0, image2, to '/home/dadard/REPOS/Prog/godot/GoGodotJam_2/images/energy/animations/energy_medium/gif/palette.png':
  Metadata:
    encoder         : Lavf58.76.100
  Stream #0:0, 0, 1/12: Video: png, 1 reference frame, rgba(pc, gbr/unknown/unknown, progressive), 16x16 (0x0) [SAR 1:1 DAR 1:1], 0/1, q=2-31, 200 kb/s, 12 fps, 12 tbn
    Metadata:
      encoder         : Lavc58.134.100 png
Clipping frame in rate conversion by 0.000008
frame=    1 fps=0.0 q=0.0 size=N/A time=00:00:00.00 bitrate=N/A speed=   0x    cur_dts is invalid st:0 (0) [init:1 i_done:0 finish:0] (this is harmless if it occurs once at the start per stream)
[out_0_0 @ 0x55a9162f20c0] EOF on sink link out_0_0:default.
No more output streams to write to, finishing.
[image2 @ 0x55a9162e7680] Opening '/home/dadard/REPOS/Prog/godot/GoGodotJam_2/images/energy/animations/energy_medium/gif/palette.png' for writing
[file @ 0x55a91647fec0] Setting default whitelist 'file,crypto,data'
[AVIOContext @ 0x55a91647ffc0] Statistics: 0 seeks, 1 writeouts
frame=    1 fps=0.0 q=-0.0 Lsize=N/A time=00:00:00.08 bitrate=N/A speed=17.7x    
[AVIOContext @ 0x55a9162c5740] Statistics: 0 seeks, 2 writeouts
video:1kB audio:0kB subtitle:0kB other streams:0kB global headers:0kB muxing overhead: unknown
Input file #0 (/home/dadard/REPOS/Prog/godot/GoGodotJam_2/images/energy/animations/energy_medium/gif/player_idle%04d.png):
  Input stream #0:0 (video): 16 packets read (70695 bytes); 16 frames decoded; 
  Total: 16 packets (70695 bytes) demuxed
Output file #0 (/home/dadard/REPOS/Prog/godot/GoGodotJam_2/images/energy/animations/energy_medium/gif/palette.png):
  Output stream #0:0 (video): 1 frames encoded; 1 packets muxed (959 bytes); 
  Total: 1 packets (959 bytes) muxed
16 frames successfully decoded, 0 decoding errors
